# xmcd
#
# Track frame offsets: 
#        150
#        23064
#        37721
#        64078
#        80138
#        93493
#        107902
#        125968
#        145115
#        158789
#        176242
#
# Disc length: 2615 seconds
#
# Revision: 0
# Processed by: cddbd v1.5.2PL0 Copyright (c) Steve Scherf et al.
# Submitted via: ExactAudioCopy v1.0b4
#
DISCID=950a350b
DTITLE=Magic Slim and The Teardrops - Grand Slam (LP)
DYEAR=1982
DGENRE=Blues
TTITLE0=Early Every Morning
TTITLE1=She Belongs To Me
TTITLE2=Just To Be With You
TTITLE3=Walking The Dog
TTITLE4=Slammin'
TTITLE5=Rough Dried Woman
TTITLE6=Fannie Mae
TTITLE7=Give Me Back My Wick
TTITLE8=Scuffling
TTITLE9=Make My Dream Come True
TTITLE10=1823 S. Michigan Ave
EXTD=
EXTT0=
EXTT1=
EXTT2=
EXTT3=
EXTT4=
EXTT5=
EXTT6=
EXTT7=
EXTT8=
EXTT9=
EXTT10=
PLAYORDER=
